<mxfile host="app.diagrams.net" modified="2023-11-12T14:29:27.859Z" agent="Mozilla/5.0 (Macintosh; Intel Mac OS X 10_15_7) AppleWebKit/537.36 (KHTML, like Gecko) Chrome/119.0.0.0 Safari/537.36" etag="x6ajqivfDWOmDTp-cT1W" version="22.1.0" type="github">
  <diagram id="C5RBs43oDa-KdzZeNtuy" name="Page-1">
    <mxGraphModel dx="954" dy="642" grid="1" gridSize="10" guides="1" tooltips="1" connect="1" arrows="1" fold="1" page="1" pageScale="1" pageWidth="827" pageHeight="1169" math="0" shadow="0">
      <root>
        <mxCell id="WIyWlLk6GJQsqaUBKTNV-0" />
        <mxCell id="WIyWlLk6GJQsqaUBKTNV-1" parent="WIyWlLk6GJQsqaUBKTNV-0" />
        <mxCell id="PEl4m2EFPUCX9TIkptDM-2" value="" style="edgeStyle=orthogonalEdgeStyle;rounded=0;orthogonalLoop=1;jettySize=auto;html=1;" edge="1" parent="WIyWlLk6GJQsqaUBKTNV-1" source="PEl4m2EFPUCX9TIkptDM-0" target="PEl4m2EFPUCX9TIkptDM-1">
          <mxGeometry relative="1" as="geometry" />
        </mxCell>
        <mxCell id="PEl4m2EFPUCX9TIkptDM-0" value="Start" style="ellipse;whiteSpace=wrap;html=1;" vertex="1" parent="WIyWlLk6GJQsqaUBKTNV-1">
          <mxGeometry x="354" y="20" width="120" height="80" as="geometry" />
        </mxCell>
        <mxCell id="PEl4m2EFPUCX9TIkptDM-4" value="" style="edgeStyle=orthogonalEdgeStyle;rounded=0;orthogonalLoop=1;jettySize=auto;html=1;" edge="1" parent="WIyWlLk6GJQsqaUBKTNV-1" source="PEl4m2EFPUCX9TIkptDM-1" target="PEl4m2EFPUCX9TIkptDM-3">
          <mxGeometry relative="1" as="geometry" />
        </mxCell>
        <mxCell id="PEl4m2EFPUCX9TIkptDM-1" value="Input Nilai" style="shape=parallelogram;perimeter=parallelogramPerimeter;whiteSpace=wrap;html=1;fixedSize=1;" vertex="1" parent="WIyWlLk6GJQsqaUBKTNV-1">
          <mxGeometry x="354" y="190" width="120" height="60" as="geometry" />
        </mxCell>
        <mxCell id="PEl4m2EFPUCX9TIkptDM-6" value="" style="edgeStyle=orthogonalEdgeStyle;rounded=0;orthogonalLoop=1;jettySize=auto;html=1;" edge="1" parent="WIyWlLk6GJQsqaUBKTNV-1" source="PEl4m2EFPUCX9TIkptDM-3" target="PEl4m2EFPUCX9TIkptDM-5">
          <mxGeometry relative="1" as="geometry" />
        </mxCell>
        <mxCell id="PEl4m2EFPUCX9TIkptDM-7" value="True" style="edgeLabel;html=1;align=center;verticalAlign=middle;resizable=0;points=[];" vertex="1" connectable="0" parent="PEl4m2EFPUCX9TIkptDM-6">
          <mxGeometry x="-0.0571" y="2" relative="1" as="geometry">
            <mxPoint as="offset" />
          </mxGeometry>
        </mxCell>
        <mxCell id="PEl4m2EFPUCX9TIkptDM-9" value="" style="edgeStyle=orthogonalEdgeStyle;rounded=0;orthogonalLoop=1;jettySize=auto;html=1;" edge="1" parent="WIyWlLk6GJQsqaUBKTNV-1" source="PEl4m2EFPUCX9TIkptDM-3" target="PEl4m2EFPUCX9TIkptDM-8">
          <mxGeometry relative="1" as="geometry" />
        </mxCell>
        <mxCell id="PEl4m2EFPUCX9TIkptDM-12" value="False" style="edgeLabel;html=1;align=center;verticalAlign=middle;resizable=0;points=[];" vertex="1" connectable="0" parent="PEl4m2EFPUCX9TIkptDM-9">
          <mxGeometry x="-0.025" y="3" relative="1" as="geometry">
            <mxPoint as="offset" />
          </mxGeometry>
        </mxCell>
        <mxCell id="PEl4m2EFPUCX9TIkptDM-3" value="If Nilai &amp;lt; 60" style="rhombus;whiteSpace=wrap;html=1;" vertex="1" parent="WIyWlLk6GJQsqaUBKTNV-1">
          <mxGeometry x="374" y="320" width="80" height="80" as="geometry" />
        </mxCell>
        <mxCell id="PEl4m2EFPUCX9TIkptDM-23" style="edgeStyle=orthogonalEdgeStyle;rounded=0;orthogonalLoop=1;jettySize=auto;html=1;entryX=1;entryY=0.5;entryDx=0;entryDy=0;" edge="1" parent="WIyWlLk6GJQsqaUBKTNV-1" source="PEl4m2EFPUCX9TIkptDM-5" target="PEl4m2EFPUCX9TIkptDM-19">
          <mxGeometry relative="1" as="geometry">
            <Array as="points">
              <mxPoint x="720" y="360" />
              <mxPoint x="720" y="1000" />
            </Array>
          </mxGeometry>
        </mxCell>
        <mxCell id="PEl4m2EFPUCX9TIkptDM-5" value="Output &quot;D&quot;" style="shape=parallelogram;perimeter=parallelogramPerimeter;whiteSpace=wrap;html=1;fixedSize=1;" vertex="1" parent="WIyWlLk6GJQsqaUBKTNV-1">
          <mxGeometry x="514" y="330" width="120" height="60" as="geometry" />
        </mxCell>
        <mxCell id="PEl4m2EFPUCX9TIkptDM-11" value="" style="edgeStyle=orthogonalEdgeStyle;rounded=0;orthogonalLoop=1;jettySize=auto;html=1;" edge="1" parent="WIyWlLk6GJQsqaUBKTNV-1" source="PEl4m2EFPUCX9TIkptDM-8" target="PEl4m2EFPUCX9TIkptDM-10">
          <mxGeometry relative="1" as="geometry" />
        </mxCell>
        <mxCell id="PEl4m2EFPUCX9TIkptDM-22" value="True" style="edgeLabel;html=1;align=center;verticalAlign=middle;resizable=0;points=[];" vertex="1" connectable="0" parent="PEl4m2EFPUCX9TIkptDM-11">
          <mxGeometry x="-0.2" y="-2" relative="1" as="geometry">
            <mxPoint y="-12" as="offset" />
          </mxGeometry>
        </mxCell>
        <mxCell id="PEl4m2EFPUCX9TIkptDM-14" value="" style="edgeStyle=orthogonalEdgeStyle;rounded=0;orthogonalLoop=1;jettySize=auto;html=1;" edge="1" parent="WIyWlLk6GJQsqaUBKTNV-1" source="PEl4m2EFPUCX9TIkptDM-8" target="PEl4m2EFPUCX9TIkptDM-13">
          <mxGeometry relative="1" as="geometry" />
        </mxCell>
        <mxCell id="PEl4m2EFPUCX9TIkptDM-8" value="If Nilai &amp;lt; 75" style="rhombus;whiteSpace=wrap;html=1;" vertex="1" parent="WIyWlLk6GJQsqaUBKTNV-1">
          <mxGeometry x="374" y="480" width="80" height="80" as="geometry" />
        </mxCell>
        <mxCell id="PEl4m2EFPUCX9TIkptDM-24" style="edgeStyle=orthogonalEdgeStyle;rounded=0;orthogonalLoop=1;jettySize=auto;html=1;entryX=1;entryY=0.5;entryDx=0;entryDy=0;" edge="1" parent="WIyWlLk6GJQsqaUBKTNV-1" source="PEl4m2EFPUCX9TIkptDM-10" target="PEl4m2EFPUCX9TIkptDM-19">
          <mxGeometry relative="1" as="geometry">
            <Array as="points">
              <mxPoint x="720" y="520" />
              <mxPoint x="720" y="1000" />
            </Array>
          </mxGeometry>
        </mxCell>
        <mxCell id="PEl4m2EFPUCX9TIkptDM-10" value="Output &quot;C&quot;" style="shape=parallelogram;perimeter=parallelogramPerimeter;whiteSpace=wrap;html=1;fixedSize=1;" vertex="1" parent="WIyWlLk6GJQsqaUBKTNV-1">
          <mxGeometry x="514" y="490" width="120" height="60" as="geometry" />
        </mxCell>
        <mxCell id="PEl4m2EFPUCX9TIkptDM-16" value="True" style="edgeStyle=orthogonalEdgeStyle;rounded=0;orthogonalLoop=1;jettySize=auto;html=1;" edge="1" parent="WIyWlLk6GJQsqaUBKTNV-1" source="PEl4m2EFPUCX9TIkptDM-13" target="PEl4m2EFPUCX9TIkptDM-15">
          <mxGeometry relative="1" as="geometry" />
        </mxCell>
        <mxCell id="PEl4m2EFPUCX9TIkptDM-18" value="" style="edgeStyle=orthogonalEdgeStyle;rounded=0;orthogonalLoop=1;jettySize=auto;html=1;" edge="1" parent="WIyWlLk6GJQsqaUBKTNV-1" source="PEl4m2EFPUCX9TIkptDM-13" target="PEl4m2EFPUCX9TIkptDM-17">
          <mxGeometry relative="1" as="geometry" />
        </mxCell>
        <mxCell id="PEl4m2EFPUCX9TIkptDM-21" value="False" style="edgeLabel;html=1;align=center;verticalAlign=middle;resizable=0;points=[];" vertex="1" connectable="0" parent="PEl4m2EFPUCX9TIkptDM-18">
          <mxGeometry x="0.0667" y="-1" relative="1" as="geometry">
            <mxPoint as="offset" />
          </mxGeometry>
        </mxCell>
        <mxCell id="PEl4m2EFPUCX9TIkptDM-13" value="If Nilai &amp;lt; 85" style="rhombus;whiteSpace=wrap;html=1;" vertex="1" parent="WIyWlLk6GJQsqaUBKTNV-1">
          <mxGeometry x="374" y="640" width="80" height="80" as="geometry" />
        </mxCell>
        <mxCell id="PEl4m2EFPUCX9TIkptDM-26" style="edgeStyle=orthogonalEdgeStyle;rounded=0;orthogonalLoop=1;jettySize=auto;html=1;entryX=1;entryY=0.5;entryDx=0;entryDy=0;" edge="1" parent="WIyWlLk6GJQsqaUBKTNV-1" source="PEl4m2EFPUCX9TIkptDM-15" target="PEl4m2EFPUCX9TIkptDM-19">
          <mxGeometry relative="1" as="geometry">
            <Array as="points">
              <mxPoint x="720" y="680" />
              <mxPoint x="720" y="1000" />
            </Array>
          </mxGeometry>
        </mxCell>
        <mxCell id="PEl4m2EFPUCX9TIkptDM-15" value="Output &quot;B&quot;" style="shape=parallelogram;perimeter=parallelogramPerimeter;whiteSpace=wrap;html=1;fixedSize=1;" vertex="1" parent="WIyWlLk6GJQsqaUBKTNV-1">
          <mxGeometry x="514" y="650" width="120" height="60" as="geometry" />
        </mxCell>
        <mxCell id="PEl4m2EFPUCX9TIkptDM-20" style="edgeStyle=orthogonalEdgeStyle;rounded=0;orthogonalLoop=1;jettySize=auto;html=1;entryX=0.5;entryY=0;entryDx=0;entryDy=0;" edge="1" parent="WIyWlLk6GJQsqaUBKTNV-1" source="PEl4m2EFPUCX9TIkptDM-17" target="PEl4m2EFPUCX9TIkptDM-19">
          <mxGeometry relative="1" as="geometry" />
        </mxCell>
        <mxCell id="PEl4m2EFPUCX9TIkptDM-17" value="Output &quot;A&quot;" style="shape=parallelogram;perimeter=parallelogramPerimeter;whiteSpace=wrap;html=1;fixedSize=1;" vertex="1" parent="WIyWlLk6GJQsqaUBKTNV-1">
          <mxGeometry x="354" y="810" width="120" height="60" as="geometry" />
        </mxCell>
        <mxCell id="PEl4m2EFPUCX9TIkptDM-19" value="End" style="ellipse;whiteSpace=wrap;html=1;" vertex="1" parent="WIyWlLk6GJQsqaUBKTNV-1">
          <mxGeometry x="354" y="960" width="120" height="80" as="geometry" />
        </mxCell>
      </root>
    </mxGraphModel>
  </diagram>
</mxfile>
